# xmcd CD database file
#
# Track frame offsets:
#	150
#	9720
#	22120
#	38032
#	50595
#	77782
#	98207
#	115532
#	134320
#	168257
#	208657
#	224445
#	236345
#	258332
#	271932
#	294377
#	308632
#
# Disc length: 4475 seconds
#
# Revision: 4
# Processed by: cddbd v1.5.2PL0 Copyright (c) Steve Scherf et al.
# Submitted via: CDex 1.70beta2
#
DISCID=e8117911
DTITLE=James Brown - Star Time The Hardest Working Man In Show Business 2
DYEAR=1991
DGENRE=R&B
TTITLE0=Papa's Got A Brand New Bag, Part 1
TTITLE1=I Got You (I Feel Good)
TTITLE2=Ain't That A Groove
TTITLE3=It's A Man's Man's Man's World
TTITLE4=Money Won't Change You
TTITLE5=Don't Be A Dropout
TTITLE6=Bring It Up (Hipster's Avenue)
TTITLE7=Let Yourself Go
TTITLE8=Cold Sweat
TTITLE9=Get It Together
TTITLE10=I Can't Stand Myself (When You Touch Me), Part1
TTITLE11=I Got The Feelin'
TTITLE12=Licking Stick-Licking Stick
TTITLE13=Say It Loud - I'm Black And I'm Proud, Part 1
TTITLE14=There Was A Time (Live)
TTITLE15=Give It Up Or Turnit A Loose
TTITLE16=I Don't Want Nobody To Give Me Nothing (Open Up The Door I'll Get It Myself)
EXTD=YEAR: 1991
EXTT0=
EXTT1=
EXTT2=
EXTT3=
EXTT4=
EXTT5=
EXTT6=
EXTT7=
EXTT8=
EXTT9=
EXTT10=
EXTT11=
EXTT12=
EXTT13=
EXTT14=
EXTT15=
EXTT16=
PLAYORDER=
